<svg xmlns="http://www.w3.org/2000/svg" version="1.1" xmlns:xlink="http://www.w3.org/1999/xlink" xmlns:svgjs="http://svgjs.com/svgjs" x="0" y="0" viewBox="0 0 512.002 512.002" style="enable-background:new 0 0 512 512" xml:space="preserve" class=""><g><g><path d="m243.208 512.002c-2.915 0-5.687-1.709-6.902-4.56l-29.942-70.203c-1.625-3.81.146-8.216 3.957-9.841 3.812-1.623 8.216.147 9.841 3.957l29.942 70.203c1.625 3.81-.146 8.216-3.957 9.841-.96.409-1.957.603-2.939.603zm-88 0c-2.915 0-5.687-1.709-6.902-4.56-16.493-38.67-24.51-77.832-24.51-119.723 0-29.568 8.391-56.797 16.506-83.129 7.636-24.781 14.85-48.188 14.85-72.12 0-6.005-.741-11.501-2.039-16.699-14.215 5.738-30.793 9.321-48.186 6.802-15.137-2.194-28.997-9.386-39.024-20.251-10.634-11.522-16.255-26.066-16.255-42.06 0-17.108 6.681-32.766 18.813-44.088 11.743-10.959 27.617-16.754 45.027-16.672 1.954-31.741 15.771-57.625 40.255-75.2 21.83-15.672 51.773-24.302 84.31-24.302 15.628 0 30.597 1.725 44.49 5.126 4.023.985 6.486 5.045 5.501 9.068-.984 4.023-5.042 6.486-9.068 5.501-12.548-3.071-26.698-4.695-40.923-4.695-29.425 0-56.261 7.631-75.563 21.487-22.722 16.31-34.243 40.179-34.243 70.942 0 28.883 11 47.74 21.638 65.975 4.075 6.986 8.207 14.068 11.667 21.665 8.376-4.681 15.952-10.137 22.203-15.575-2.902-6.147-4.496-13.184-4.496-20.824 0-17.38 13.607-31.521 30.333-31.521 6.901 0 13.495 2.438 18.78 6.766 23.067-26.205 27.991-49.754 28.041-50.006.701-3.509 3.781-6.032 7.354-6.032.019 0 .005.001.061 0 .446 0 15.42-.055 30.112-5.358 17.452-6.301 26.857-17.133 27.984-32.216-5.26-4.481-11.342-8.42-18.249-11.814-3.717-1.827-5.25-6.321-3.423-10.039 1.826-3.718 6.321-5.25 10.039-3.423 29.839 14.664 62.445 46.541 48.326 115.125-1.886 9.161-2.048 15.097-.56 20.489 1.678 6.081 5.557 10.313 9.664 14.794 4.769 5.204 10.175 11.102 10.175 19.598 0 10.078-7.993 21.052-22.932 23.881-5.403 23.086-11.214 41.991-18.832 55.546 2.151-.181 4.32-.273 6.502-.273 11.495 0 22.542 2.504 32.838 7.442 3.734 1.791 5.31 6.271 3.519 10.006-1.792 3.734-6.27 5.311-10.006 3.519-8.254-3.959-17.12-5.966-26.351-5.966-32.661 0-59.684 26.138-60.966 58.586 3.275 4.598 6.09 9.593 8.369 14.934l6.09 14.279c2.672.11 5.176-1.422 6.297-3.98 1.664-3.793 6.089-5.519 9.88-3.858 3.794 1.663 5.521 6.086 3.858 9.88-2.707 6.175-7.925 10.486-13.97 12.178l12.069 28.298c13.155 8.59 31.53 5.043 44.68-1.202.046-12.772 6.57-24.5 18.158-31.583l23.634-14.447c.006-.003.011-.007.017-.01 5.625-3.438 8.132-7.533 8.132-13.278 0-4.452-2.854-8.212-6.231-8.212-1.985 0-3.397 1.276-4.062 2.038-2.727 3.119-7.464 3.437-10.583.712-3.119-2.726-3.438-7.464-.712-10.583 3.819-4.369 9.126-6.951 14.654-7.154-2.364-9.837-7.147-18.881-14.094-26.545-2.782-3.069-2.549-7.812.52-10.594s7.813-2.549 10.594.52c11.051 12.192 17.912 27.858 19.375 44.2 3.439 4.126 5.539 9.61 5.539 15.619 0 2.979-.393 5.815-1.167 8.489 1.971.235 3.93.644 5.856 1.227 9.315 2.821 17.002 9.499 21.09 18.32 10.613 22.904 12.69 64.086 12.69 127.479 0 4.142-3.358 7.5-7.5 7.5s-7.5-3.358-7.5-7.5c0-19.764-.142-39.644-.997-57.809h-49.563c-15.851 0-29.115-8.995-34.892-23.272-11.923 5.042-26.141 7.858-39.468 5.242l30.992 72.663c1.625 3.81-.146 8.216-3.957 9.841-3.809 1.625-8.216-.146-9.841-3.957l-63.386-148.614c-10.111-23.708-33.299-39.027-59.073-39.027-4.142 0-7.5-3.358-7.5-7.5s3.358-7.5 7.5-7.5c10.52 0 20.689 2.068 30.042 5.896v-35.289c-6.145-2.585-10.1-4.59-10.567-4.829-3.688-1.887-5.148-6.405-3.262-10.093 1.886-3.687 6.403-5.147 10.089-3.263.318.162 32.116 16.236 58.005 16.236 12.737 0 22.236-11.469 31.176-39.271-10.263-1.932-21.548-6.945-28.347-16.454-2.409-3.37-1.631-8.054 1.739-10.463 3.37-2.408 8.054-1.63 10.463 1.739 4.296 6.009 12.724 9.501 20.371 10.681 1.549-5.808 3.093-12.143 4.648-19.03.747-3.306 3.617-5.7 7.003-5.842 6.91-.288 14.369-4.021 14.369-9.551 0-2.534-2.369-5.247-6.233-9.464-4.645-5.068-10.425-11.375-13.064-20.938-1.878-6.805-2.034-13.967-.445-23.395-7.457-6.016-20.566-8.989-35.681-8-4.125.274-7.703-2.86-7.974-6.994-.271-4.133 2.86-7.703 6.994-7.974 15.405-1.013 29.179 1.479 39.437 6.943 3.181-24.787-.689-45.214-11.546-61.123-5.037 14.913-17.159 26.067-35.736 32.676-11.354 4.04-22.533 5.411-29.084 5.875-3.281 10.488-12.582 33.655-35.738 57.457-.471.503-1.014.943-1.615 1.304-3.235 1.939-7.405 1.18-9.743-1.776-.172-.218-.331-.442-.476-.673-2.889-4.264-7.51-6.804-12.399-6.804-8.455 0-15.333 7.411-15.333 16.521 0 18.117 12.609 30.771 30.664 30.771 4.142 0 7.5 3.358 7.5 7.5s-3.358 7.5-7.5 7.5c-13.081 0-24.388-4.704-32.479-12.666-5.318 4.476-14.241 11.31-25.584 17.481 2.044 7.103 3.29 14.756 3.29 23.214 0 24.628-6.974 48.729-14.148 72.098h31.166c4.142 0 7.5 3.358 7.5 7.5s-3.358 7.5-7.5 7.5h-35.765c-6.634 21.979-12.608 44.628-12.608 68.152 0 39.829 7.624 77.066 23.308 113.838 1.625 3.81-.146 8.216-3.957 9.841-.959.409-1.956.603-2.938.603zm253.356-136.933-23.639 14.45c-10.843 6.628-12.294 17.56-10.037 25.581s9.197 16.591 21.905 16.591h48.651c-1.559-20.355-4.365-37.517-9.391-48.363-2.325-5.017-6.525-8.665-11.828-10.271-5.252-1.592-10.95-.864-15.636 1.996-.005.003-.009.005-.014.008-.003.003-.007.005-.011.008zm-146.353-56.478c2.167 1.497 4.258 3.102 6.268 4.81 3.047-13.564 9.779-26.04 19.67-36.201-9.092-1.318-18.077-3.753-25.938-6.371zm-149.233-204.091c-13.421 0-25.47 4.414-34.283 12.639-9.059 8.455-14.047 20.217-14.047 33.122 0 24.327 17.448 43.845 42.431 47.466 13.723 1.987 27.908-.855 40.982-6.158-3.117-6.867-7.006-13.534-11.133-20.607-10.285-17.631-21.842-37.444-23.483-66.46-.155-.001-.311-.002-.467-.002zm216.973 285.176c-.744 0-1.475-.037-2.191-.113-4.119-.437-7.104-4.131-6.666-8.25.437-4.119 4.119-7.114 8.25-6.666 2.624.276 7.162-1.373 8.992-3.273 2.875-2.982 7.623-3.069 10.604-.196 2.983 2.874 3.071 7.622.196 10.605-4.59 4.764-12.354 7.893-19.185 7.893zm16.302-37.277c-2.952 0-5.899-.612-8.684-1.833-3.793-1.663-5.521-6.086-3.857-9.88 1.663-3.794 6.085-5.521 9.88-3.857 1.625.711 3.429.748 5.082.104 1.653-.646 2.955-1.896 3.667-3.521 1.664-3.793 6.089-5.522 9.88-3.858 3.794 1.663 5.521 6.086 3.858 9.88-2.321 5.295-6.565 9.369-11.95 11.472-2.551.996-5.216 1.493-7.876 1.493zm-35.382-190.793c-8.637 0-17.314-3.62-23.304-10.107-2.81-3.043-2.62-7.788.423-10.598 3.045-2.809 7.79-2.62 10.598.423 4.131 4.474 10.947 6.39 16.57 4.657 3.961-1.218 8.156 1.002 9.375 4.96 1.219 3.959-1.002 8.156-4.96 9.375-2.824.87-5.761 1.29-8.702 1.29z" fill="currentColor" data-original="#000000"/></g></g></svg>