<svg xmlns="http://www.w3.org/2000/svg" version="1.1" xmlns:xlink="http://www.w3.org/1999/xlink" xmlns:svgjs="http://svgjs.com/svgjs" x="0" y="0" viewBox="0 0 511.987 511.987" style="enable-background:new 0 0 512 512" xml:space="preserve"><g><g><path d="m240.993 196.987h-180c-4.142 0-7.5 3.357-7.5 7.5v270c0 20.678 16.822 37.5 37.5 37.5h120c20.678 0 37.5-16.822 37.5-37.5v-270c0-4.143-3.358-7.5-7.5-7.5zm-7.5 15v15h-165v-15zm-22.5 285h-120c-12.407 0-22.5-10.094-22.5-22.5v-30.02c6.272 4.719 14.064 7.52 22.5 7.52h120c8.436 0 16.228-2.801 22.5-7.52v30.02c0 12.406-10.093 22.5-22.5 22.5zm0-60h-120c-12.407 0-22.5-10.094-22.5-22.5v-172.5h165v172.5c0 12.406-10.093 22.5-22.5 22.5z" fill="currentColor" data-original="#000000"/><path d="m450.993 286.987h-7.5v-84.5c0-4.143-3.357-7.5-7.5-7.5h-7.5v-86.261c0-41.754-20.469-80.913-54.755-104.752-7.623-5.299-17.867-5.299-25.49 0-34.286 23.839-54.755 62.998-54.755 104.752v86.261h-7.5c-4.143 0-7.5 3.357-7.5 7.5v84.5h-7.5c-4.143 0-7.5 3.357-7.5 7.5v180c0 20.678 16.822 37.5 37.5 37.5h120c20.678 0 37.5-16.822 37.5-37.5v-180c0-4.143-3.357-7.5-7.5-7.5zm-142.5-178.261c0-36.845 18.063-71.399 48.317-92.436 2.502-1.74 5.863-1.74 8.365 0 30.255 21.036 48.317 55.591 48.317 92.436v86.261h-105v-86.261zm-22.5 193.261c4.143 0 7.5-3.357 7.5-7.5v-84.5h135v77h-112.5c-4.143 0-7.5 3.357-7.5 7.5s3.357 7.5 7.5 7.5h127.5v15h-165v-15zm135 195h-120c-12.406 0-22.5-10.094-22.5-22.5v-30.02c6.272 4.719 14.064 7.52 22.5 7.52h120c8.436 0 16.228-2.801 22.5-7.52v30.02c0 12.406-10.093 22.5-22.5 22.5zm0-60h-120c-12.406 0-22.5-10.094-22.5-22.5v-82.5h165v82.5c0 12.406-10.093 22.5-22.5 22.5z" fill="currentColor" data-original="#000000"/></g></g></svg>