<svg xmlns="http://www.w3.org/2000/svg" version="1.1" xmlns:xlink="http://www.w3.org/1999/xlink" xmlns:svgjs="http://svgjs.com/svgjs" x="0" y="0" viewBox="0 0 128 128" style="enable-background:new 0 0 512 512" xml:space="preserve"><g><g><path d="m114.5 40.7c-.2-10.7-8.9-19.2-19.5-19.2h-63.4c-10.6 0-19.3 8.5-19.5 19.1-6.8 0-11.5 5.4-11.5 11.3 0 4.6 2.8 8.8 7.1 10.5v15.6c0 4.2 2 8.1 5.1 10.5l-3.2 13.5c-.8 3.1 1.1 6.2 4.2 7s6.2-1.2 7-4.2l1.7-6.7h82.1l1.7 6.7c.7 3.1 3.9 5 7 4.3s5-3.9 4.3-7v-.1l-3.3-13.5c3.3-2.5 5.2-6.4 5.1-10.5v-15.6c5.8-2.3 8.6-8.8 6.4-14.6-1.8-4.4-6.2-7.4-11.3-7.1zm-99 .3c0-8.9 7.2-16.1 16.1-16.1h63.4c8.9 0 16.1 7.2 16.1 16.1v.4c-4 1.5-7.1 5-7.1 9.4 0 .4 0-.4-.1 16.6-2.5-2.8-6-4.3-9.8-4.3h-19.1c-4.8 0-9.1 2.6-11.5 6.7-2.4-4.1-6.7-6.7-11.5-6.7h-19.1c-3.7 0-7.3 1.6-9.8 4.3 0 0 0-12.1 0-16.1 0-1.9-1.5-5.9-3.5-7.5-1.3-1-2.7-2-4.1-2.5zm7.7 34.6c.4-5.1 4.6-9.1 9.8-9.1h19c5.3 0 9.6 4.2 9.8 9.4h-38.6zm80.7.4h-38.6c.2-5.3 4.5-9.4 9.8-9.4h19.1c5.2-.1 9.5 4.1 9.7 9.4zm-86.4 28c-.3 1.2-1.6 2-2.8 1.7-1.3-.3-2-1.6-1.7-2.8l3-12.6c1.1.5 2.2.8 3.4.9v4.8zm5.4-12.6h81v3.2h-81zm89.5 14.3c-1.1.2-2.5-.5-2.8-1.7l-2.2-9.1v-3.5c1.3-.1 2.5-.4 3.7-1 0 0 2.3 9.6 3.1 12.5.2 1-.3 2.4-1.8 2.8zm4.7-46.2c-.8.2-1.3.9-1.3 1.7v16.8c0 5.6-4.6 9.9-9.9 9.9h-84.8c-5.3 0-9.9-4.3-9.9-9.9v-16.9c0-.8-.5-1.5-1.3-1.7-4.2-1.1-6.7-5.4-5.6-9.5.9-3.5 4-5.9 7.6-5.9 4.1 0 7.8 3.3 7.8 7.3v26.3c0 1 .8 1.7 1.7 1.7h84.2c1 0 1.7-.8 1.7-1.7v-26c0-.3 0-.7.2-1.4.7-2.8 2.8-5.1 5.7-5.8.6-.2 1.3-.2 2-.2 4.3 0 7.8 3.5 7.8 7.8 0 3.5-2.4 6.6-5.9 7.5z" fill="currentColor" data-original="#000000"/><circle cx="34.8" cy="49.2" r="2.5" fill="currentColor" data-original="#000000"/><circle cx="54" cy="49.2" r="2.5" fill="currentColor" data-original="#000000"/><circle cx="73.2" cy="49.2" r="2.5" fill="currentColor" data-original="#000000"/><circle cx="92.4" cy="49.2" r="2.5" fill="currentColor" data-original="#000000"/><circle cx="44.8" cy="38" r="2.5" fill="currentColor" data-original="#000000"/><circle cx="64.1" cy="38" r="2.5" fill="currentColor" data-original="#000000"/><circle cx="83.3" cy="38" r="2.5" fill="currentColor" data-original="#000000"/></g></g></svg>