<svg xmlns="http://www.w3.org/2000/svg" version="1.1" xmlns:xlink="http://www.w3.org/1999/xlink" xmlns:svgjs="http://svgjs.com/svgjs" x="0" y="0" viewBox="0 0 24 24" style="enable-background:new 0 0 512 512" xml:space="preserve" class=""><g><path clip-rule="evenodd" d="m12.4697 15.5303 3 3c.2929.2929.7677.2929 1.0606 0l3-3c.2929-.2929.2929-.7677 0-1.0606s-.7677-.2929-1.0606 0l-1.7197 1.7196v-10.1893c0-.41421-.3358-.75-.75-.75s-.75.33579-.75.75v10.1893l-1.7197-1.7196c-.2929-.2929-.7677-.2929-1.0606 0s-.2929.7677 0 1.0606zm-3.93937-10.06063c-.29289-.29289-.76777-.29289-1.06066 0l-3 3c-.29289.29289-.29289.76777 0 1.06066s.76777.29289 1.06066 0l1.71967-1.71967v10.18934c0 .4142.33579.75.75.75s.75-.3358.75-.75v-10.18934l1.7197 1.71967c.2929.29289.7677.29289 1.0606 0s.2929-.76777 0-1.06066z" fill="#ffffff" fill-rule="evenodd" data-original="#ffffff"/></g></svg>